<svg xmlns="http://www.w3.org/2000/svg" viewBox="0 0 85.99 87.29"><title>starBurst</title><g id="Layer_2" data-name="Layer 2"><g id="Layer_1-2" data-name="Layer 1"><polygon points="49.1 9.27 57.98 2.65 60.49 13.43 71.09 10.25 69.77 21.24 80.82 21.87 75.82 31.75 85.99 36.12 77.91 43.69 85.97 51.28 75.79 55.63 80.77 65.52 69.71 66.13 71.01 77.12 60.41 73.91 57.87 84.68 49.01 78.04 42.94 87.29 36.89 78.03 28.01 84.64 25.5 73.86 14.89 77.05 16.22 66.06 5.17 65.42 10.17 55.55 0 51.17 8.08 43.6 0.02 36.01 10.2 31.66 5.22 21.77 16.27 21.17 14.98 10.18 25.57 13.38 28.12 2.61 36.98 9.25 43.05 0 49.1 9.27" style="fill:#f2ca06"/></g></g></svg>